<?xml version="1.0" encoding="UTF-8" standalone="no"?>
<!-- Created with Inkscape (http://www.inkscape.org/) -->

<svg
   xmlns:dc="http://purl.org/dc/elements/1.1/"
   xmlns:cc="http://creativecommons.org/ns#"
   xmlns:rdf="http://www.w3.org/1999/02/22-rdf-syntax-ns#"
   xmlns:svg="http://www.w3.org/2000/svg"
   xmlns="http://www.w3.org/2000/svg"
   xmlns:sodipodi="http://sodipodi.sourceforge.net/DTD/sodipodi-0.dtd"
   xmlns:inkscape="http://www.inkscape.org/namespaces/inkscape"
   width="1857.8146"
   height="1857.8146"
   id="svg2"
   version="1.1"
   inkscape:version="0.48.4 r9939"
   sodipodi:docname="power_fist_.svg">
  <defs
     id="defs4" />
  <sodipodi:namedview
     id="base"
     pagecolor="#ffffff"
     bordercolor="#666666"
     borderopacity="1.0"
     inkscape:pageopacity="0.0"
     inkscape:pageshadow="2"
     inkscape:zoom="0.31059967"
     inkscape:cx="886.11116"
     inkscape:cy="789.55051"
     inkscape:document-units="px"
     inkscape:current-layer="g6844"
     showgrid="false"
     fit-margin-top="0"
     fit-margin-left="0"
     fit-margin-right="0"
     fit-margin-bottom="0"
     inkscape:window-width="1920"
     inkscape:window-height="986"
     inkscape:window-x="0"
     inkscape:window-y="0"
     inkscape:window-maximized="1" />
  <metadata
     id="metadata7">
    <rdf:RDF>
      <cc:Work
         rdf:about="">
        <dc:format>image/svg+xml</dc:format>
        <dc:type
           rdf:resource="http://purl.org/dc/dcmitype/StillImage" />
        <dc:title></dc:title>
      </cc:Work>
    </rdf:RDF>
  </metadata>
  <g
     inkscape:label="Layer 1"
     inkscape:groupmode="layer"
     id="layer1"
     transform="translate(721.29196,489.01051)">
    <g
       id="g6844"
       style="fill:#d40000"
       transform="translate(-67.611147,0)">
      <g
         id="g3769">
        <g
           inkscape:export-ydpi="3.7"
           inkscape:export-xdpi="3.7"
           inkscape:export-filename="/home/olivier/devs/filuttes/site/static/leaflet/images/fist.png"
           transform="matrix(1.0806143,0,0,1.0381264,112.4523,203.71856)"
           style="fill:#000000"
           id="g3764">
          <path
             sodipodi:nodetypes="sccsccccccccccccccsccccccccccccccccccccsscccccccccccsccssscccccscccccccscccsccccccccccccccccccccccccsccccccccccccccccccsccccccccccccsccccccccccccsccccccccscscscccccccccccccccccccccc"
             inkscape:connector-curvature="0"
             style="fill:#000000;stroke:none"
             d="m 322.37863,-227.8834 c -9.3685,-0.10857 -21.1394,5.81144 -28.6875,8.09375 -26.72,8.073 -54.2,15.31525 -81,23.03125 -24.92,7.174 -47.84,15.9015 -72,25.0625 -7.59,2.878 -23.5987,6.41075 -27.9687,13.71875 -3.89,6.493 3.0062,17.76325 5.6562,23.65625 9.06,20.073 20.27,39.22325 29.5,59.03125 10.78,23.137 26.4713,44.17275 36.0313,67.9687504 3.38,8.408 7.4612,16.019 11.7812,23.9999996 1.6,2.955 3.275,8.187 6.375,9.875 4.19,2.28 13.365,-1.95225 17.625,-3.15625 15.03,-4.247 30.27,-7.4315 45,-12.6875 21.13,-7.5399996 44.07,-10.65949963 66,-16.4374996 29.48,-7.7650004 58.72,-17.2447504 88.00003,-24.5937504 -1.37,-15.603 -13.38003,-33.729 -19.75003,-48 -15.56,-34.847 -29.2575,-70.58 -46.9375,-104 -5.5,-10.385 -11.0562,-20.937 -15.9062,-31.625 -2.01,-4.423 -2.6288,-10.58725 -7.7188,-12.78125 -1.8244,-0.786 -3.838,-1.1312 -6,-1.15625 z m -251.093701,87.25 c -2.6778,0.0182 -5.3948,0.3115 -7.5938,0.3125 -14.566,0.006 -28.4607,2.59675 -42.0937,7.34375 -40.129,13.972 -77.0803,27.72975 -111.9063,53.34375 -10.046999,7.39 -20.643999,14.084 -29.999999,22.375 -3.231,2.863 -8.919,6.2265 -9.375,10.9375 -0.691,7.133 4.97,17.072 8.375,23 8.727,15.1940004 17.6338,30.4080004 27.343799,45 36.584,54.976 74.0312,109.697 110.6562,164.99999 l 1,0 c -0.988,-23.02399 -5.991,-45.85399 -6,-68.99999 0,-8.46301 -1.126,-19.29001 3.125,-27.00001 6.077,-11.023 26.76,-14.33749 37.875,-17.81249 35.37,-11.057 72.460001,-25.9955 109.000001,-32.1875 l 3,-3 c -7.31,-19.975 -19.4537,-38.8999996 -28.8437,-58 -11.69,-23.774 -21.635,-48.813 -32.875,-73 -5.130001,-11.05 -10.248801,-22.107 -15.718801,-33 -2.07,-4.142 -4.4162,-10.61675 -8.6562,-12.96875 -1.99,-1.102 -4.6348,-1.362 -7.3125,-1.34375 z m -243.343799,114.375 c -12.5086,0.42105 -27.6297,9.38984 -37.25,12.875 -35.489,12.85700037 -68.0362,36.18225 -95.2812,62.15625 -10.33,9.849 -22.6505,21.74125 -28.6875,34.90624 -6.157,13.424 -0.3658,19.16925 5.1562,31.03125 7.837,16.83901 17.799,32.15376 27.625,47.96876 37.335,60.09501 84.0755,112.58802 125.9375,169.00002 12.332,16.619 24.596,33.4742 40.25,47.2812 4.371,3.855 9.3358,11.8563 15.0938,13.4063 16.852,4.535 37.335199,-2.1658 53.906199,-4.4688 32.386,-4.5 64.64600018,-8.9395 97,-14.8125 14.617,-2.654 29.193,-8.1152 44,-9.4062 -2.34,-10.924 -10.2752,-17.7515 -15.1562,-27.0625 -11.567,-22.068 -23.3505,-43.5828 -36.0625,-65.0938 -40.272,-68.14598 -80.2238,-136.27372 -123.0938,-202.84372 -14.254999,-22.137 -28.731699,-44.082 -43.343699,-65.9999996 -5.128,-7.693 -12.062,-22.5997504 -20.375,-26.9687504 -2.916,-1.53257 -6.2164,-2.08665 -9.7188,-1.96875 z m 622.46883,16.9062504 c -9.0714,0.23268 -18.1063,3.14987 -26.7188,5.46875 -20.41003,5.496 -40.69003,11.36425 -61.00003,17.1562496 -69.24,19.739 -138.36,40.8095 -208,58.9375 -25.11,6.536 -50.19,13.43324 -75.000001,20.90624 -7.961,2.399 -21.6472,4.059 -27.7812,9.875 -4.231,4.013 -3.2188,10.4035 -3.2188,15.68751 0,13.093 0.7275,26.141 3.1875,39 2.546,13.313 3.721,26.70299 6.375,39.99999 0.969,4.857 0.7435,11.54252 3.4375,15.81252 3.468,5.496 16.18,8.5275 22,11.4375 28.155001,14.10493 60.536801,27.54551 90.000001,36.37499 18.13,3.69 36.61,7.56352 55,9.56252 9.53,1.035 19.39,3.4785 29,1.0625 31.14,-7.82802 57.75,-31.37327 81,-52.40626 8.57,-7.753 16.46,-19.92677 27,-24.84377 -6.28,21.80702 -18.4362,42.66901 -26.4062,64.00001 -3.05,8.13702 -8.7725,18.08502 -8.3125,27.00002 0.61,11.878 12.49,29.181 22.75,34.625 6.08,3.226 14.2787,3.4432 20.9687,4.7812 18.87,3.773 38.95003,5.6978 58.00003,7.5938 l 0,1 c -18.21,4.486 -37.52003,4.05 -56.00003,6.125 -11.64,1.306 -22.75,5.5097 -34,7.5937 -23.4,4.33 -48.56,8.0298 -71,16.0938 -35.17,12.641 -68.13,35.5115 -99,56.1875 -75.280001,50.431 -146.788501,112.32 -193.437501,191 -16.738,28.23 -34.7185,61.05 -39.5625,94 l -3,0 c -0.01,10.78 -8.6097,31.0725 -2.9687,40.8125 4.567,7.89 26.6907,9.9475 34.9687,10.1875 29.5970002,0.87 59.729,7.06 89,11 l -6.9687,19 -23.2813,62 -73.6875,190.99998 -23.9062,66 -10.1563,23 11.5,-54 20.9063,-92.99998 36.5937,-179 c -9.791,0 -18.427,2.805 -28,3.875 -19.158,2.15 -40.583,0.8137 -59,-4.6563 -5.831999,-1.73 -17.088199,-3.5075 -21.406199,-7.9375 -4.713,-4.83 -1.5938,-22.7812 -1.5938,-29.2812 0,-31.34 6.9235,-62.54 17.3125,-92 30.107999,-85.37 92.118799,-146.6813 156.593799,-207.2813 19.567,-18.397 41.7337,-33.6985 64.093701,-48.5625 11.03,-7.335 23.18,-17.3922 36,-21.1562 l 0,-1 c -25.88,4.805 -52.820001,5.185 -79.000001,8.125 -29.022,3.258 -58.004,9.0315 -87,12.6875 -15.963,2.013 -31.992,4.4052 -48,6.0312 -9.81,0.997 -22.018,1.1903 -31,5.5313 -40.432999,19.54 -77.928999,48.795 -114.999999,73.625 l -29,19.3437 c -3.197,2.14 -7.815,7.23 -12,6.5 -4.537,-0.79 -9.472,-6.2925 -13,-9.0625 -9.336,-7.32 -18.487,-14.9512 -28,-22.0312 -37.078,-27.59 -72.396,-57.423 -109,-85.375 -10.51,-8.025 -20.3667,-16.772 -30.9687,-24.5 -5.212,-3.799 -8.4443,-8.382 -15.0313,-9.875 -0.826,10.109 -4.2122,19.854 -4.9062,30 -1.845,26.937 1.1302,56.4792 6.1562,82.9062 5.865,30.84 15.3918,62.7438 23.4688,93.0938 3.384,12.72 9.8912,24.52 10.2812,38 l 3,0 c 1.484,9.91 6.5915,19.4 9.4375,29 3.918,13.22 6.331,28.79 13.75,40.75 18.638,30.05 48.7925,56.5537 74.8125,80.0937 15.242,13.79 30.771,27.2738 46,41.0938 4.806,4.35 15.3808,10.035 17.4688,16.375 2.244,6.82 -1.2938,17.5275 -1.4688,24.6875 -0.638,26.05 -3.1902,53.16 -6.7812,79 -6.558,47.2 -7.168,95.43988 -9.25,142.99998 -0.7724,32.3173 -5.8691,69.611 -7.8125,95.9687 101.7963,46.9942 215.142999,74.8125 334.624999,74.8125 99.261801,0 194.281401,-19.7097 281.968701,-52.7812 -2.4674,-13.1254 -4.9316,-40.9495 -6.5625,-54 -2.44,-20.3503 -3.6225,-40.8838 -6.0625,-61.0938 -1.99,-16.46 -1.5212,-33.4062 -3.2812,-49.9062 -3.19,-29.74018 -7.8475,-59.28998 -10.6875,-88.99998 -1.17,-12.2001 -0.4263,-24.92 -2.4063,-37 -4.92,-30.06 -7.3812,-60.53 -8.7812,-91 -0.45,-9.86 -7.035,-22.06 -3.375,-32 1.91,-5.16 7.665,-9.15 11.375,-13 7.63,-7.92 14.6375,-15.0375 22.9375,-22.1875 18.18,-15.66 34.0425,-34.1925 51.8125,-50.3125 15.63,-14.18 29.01123,-30.8513 44.03123,-45.5313 45.69,-44.64 92,-88.7187 137.25,-133.9687 17.85,-17.85 35.18995,-36.1 52.99995,-54 7.1,-7.137 -4.18517,-10.88333 -1.33517,-20.79733 2.97,-10.329 -4.03875,-22.847 -7.71875,-32 -5.07,-12.574 -8.08625,-26.944 -11.90625,-40 -18.63,-63.781 -40.70495,-126.14302 -62.37495,-189.00002 -12.53,-36.365 -26.1313,-72.45201 -38.2813,-108.999999 -4.73,-14.197 -8.2375,-37.93025 -18.4375,-48.90625 -12.88,-13.8549993 -11.02603,-24.6871706 -28.94603,-27.0151706 -2.0925,-0.27188 -4.1879,-0.3662 -6.2812,-0.3125 z M -369.15257,134.4916 c -1.9249,0.0176 -3.9625,0.25088 -6.1563,0.71875 -21.715,4.631 -40.673,22.0815 -57,36.0625 -18.245,15.62499 -33.7812,33.20724 -48.1562,52.40626 -8.484,11.33099 -16.6425,23.10899 -15.8125,37.99999 1.036,18.57302 24.0297,35.02602 35.9687,47.00002 35.581,35.682 72.7535,67.6495 110.9375,100.3125 24.362,20.838 48.8045,41.2522 74.0625,60.9062 9.83,7.64 20.54,19.28 34,16.25 26.969,-6.06 54.4363,-28.0775 75.0313,-45.5625 6.111,-5.188 19.1907,-14.8372 18.5937,-23.9062 -0.405,-6.15 -4.594,-9.3443 -7.75,-14.0313 -8.49,-12.61 -18.3207,-23.9605 -27.3437,-36.0625 -34.766,-46.634 -68.6453,-94.1502 -103.6563,-140.90621 -17.591,-23.49302 -35.2047,-46.77301 -53.2187,-70.00001 -8.603,-11.09063 -16.0258,-21.31098 -29.5,-21.1875 z M 58.691129,256.6791 c 1.305,8.979 9.7053,17.57802 14.6563,25.00002 12.743,19.1 25.6725,38.3727 39.312501,56.8437 4.24,5.742 10.8487,22.261 18.2187,23.75 9.83,1.984 21.6838,-5.9215 30.8438,-8.1875 28.62,-7.086 58.7787,-17.1122 87.9687,-21.4062 -1.38,-6.642 -5.3262,-21.6925 -10.6562,-26.0625 -3.4,-2.792 -10.1538,-3.5803 -14.3438,-4.7813 -11.29,-3.237 -22.62,-6.479 -34,-9.375 -44.29,-11.272 -87.81,-25.2562 -132.000001,-35.78122 z"
             id="path3757" />
          <rect
             style="fill:#000000;fill-opacity:1;stroke:none"
             id="rect3759"
             width="408.88647"
             height="840.31"
             x="-170.74403"
             y="319.2215" />
          <path
             style="fill:#000000;fill-opacity:1;stroke:none"
             d="M -399.3341,167.90131 -289.86843,51.996493 64.285199,-137.95863 l 57.952421,-16.0979 280.10332,90.148201 99.80693,206.053049 -122.34398,315.5187 -785.57715,103.02651 -31.39089,-177.07683 0.8049,-93.36778 z"
             id="rect3761"
             inkscape:connector-curvature="0"
             sodipodi:nodetypes="ccccccccccc" />
        </g>
        <path
           inkscape:export-ydpi="3.7"
           inkscape:export-xdpi="3.7"
           inkscape:export-filename="/home/olivier/devs/filuttes/site/static/leaflet/images/fist.png"
           inkscape:connector-curvature="0"
           style="fill:#d40000;stroke:none"
           d="m 436.15122,1.6344122 c -9.3685,-0.10857 -21.1394,5.81144 -28.6875,8.09375 -26.72,8.0729898 -54.2,15.3152398 -81,23.0312398 -24.92,7.17401 -47.84,15.90151 -72,25.06251 -7.59,2.878 -23.5987,6.41075 -27.9687,13.71875 -3.89,6.493 3.0062,17.76325 5.6562,23.65625 9.06,20.072988 20.27,39.223238 29.5,59.031238 10.78,23.137 26.4713,44.17275 36.0313,67.96876 3.38,8.408 7.4612,16.019 11.7812,24 1.6,2.955 3.275,8.187 6.375,9.875 4.19,2.28 13.365,-1.95225 17.625,-3.15625 15.03,-4.247 30.27,-7.4315 45,-12.6875 21.13,-7.54 44.07,-10.6595 66,-16.4375 29.48,-7.765 58.72,-17.24476 88.0001,-24.59376 -1.37,-15.603 -13.3801,-33.729 -19.7501,-48 -15.56,-34.847 -29.2575,-70.579988 -46.9375,-103.999988 -5.5,-10.385 -11.0562,-20.93701 -15.9062,-31.62501 -2.01,-4.42299 -2.6288,-10.5872398 -7.7188,-12.7812398 -1.8244,-0.786 -3.838,-1.1312 -6,-1.15625 z M 185.05752,88.884412 c -2.6778,0.0182 -5.3948,0.3115 -7.5938,0.3125 -14.566,0.006 -28.4607,2.59675 -42.0937,7.34375 -40.129002,13.971988 -77.0803,27.729738 -111.9063,53.343738 -10.047,7.39 -20.6439996,14.084 -29.9999995,22.375 -3.2310001,2.863 -8.9190005,6.2265 -9.3750005,10.9375 -0.691,7.133 4.97,17.072 8.3750005,23 8.7269999,15.19401 17.6337995,30.40801 27.3437995,45.00001 36.584,54.976 74.031198,109.69699 110.6562,164.99999 l 1,0 c -0.988,-23.024 -5.991,-45.854 -6,-69 0,-8.463 -1.126,-19.29 3.125,-27 6.077,-11.023 26.76,-14.33749 37.875,-17.81249 35.37,-11.057 72.46,-25.9955 109,-32.1875 l 3,-3 c -7.31,-19.975 -19.4537,-38.9 -28.8437,-58.00001 -11.69,-23.774 -21.635,-48.813 -32.875,-73 -5.13,-11.05 -10.2488,-22.107 -15.7188,-32.99999 -2.07,-4.141998 -4.4162,-10.616748 -8.6562,-12.968748 -1.99,-1.102 -4.6348,-1.362 -7.3125,-1.34375 z M -58.28628,203.2594 c -12.5086,0.42105 -27.6297,9.38985 -37.25,12.87501 -35.489,12.857 -68.0362,36.18225 -95.2812,62.15625 -10.33,9.849 -22.6505,21.74125 -28.6875,34.90624 -6.157,13.424 -0.3658,19.16925 5.1562,31.03125 7.837,16.839 17.799,32.15375 27.625,47.96875 37.335,60.09502 84.0755,112.58801 125.9375,169.00001 12.332,16.619 24.596,33.47425 40.25,47.28125 4.371,3.855 9.3358,11.85625 15.0938005,13.40625 16.8519995,4.535 37.3351995,-2.16575 53.9061995,-4.46875 32.386,-4.5 64.646,-8.9395 97,-14.8125 14.617,-2.654 29.193,-8.11525 44,-9.40625 -2.34,-10.924 -10.2752,-17.7515 -15.1562,-27.0625 -11.567,-22.068 -23.3505,-43.58275 -36.0625,-65.09375 C 97.973018,432.89465 58.02122,364.7669 15.15122,298.19691 c -14.25499956,-22.137 -28.7317,-44.082 -43.3437,-66 -5.128,-7.693 -12.062,-22.59976 -20.375,-26.96876 -2.916,-1.53257 -6.2164,-2.08665 -9.7188,-1.96875 z m 622.46887,16.90626 c -9.07137,0.23268 -18.10627,3.14987 -26.71877,5.46875 -20.4101,5.496 -40.6901,11.36425 -61.0001,17.15625 -69.24,19.739 -138.36,40.8095 -208,58.9375 -25.11,6.536 -50.19,13.43324 -75,20.90624 -7.961,2.399 -21.6472,4.059 -27.7812,9.875 -4.231,4.013 -3.2188,10.4035 -3.2188,15.6875 0,13.093 0.7275,26.141 3.1875,39 2.546,13.313 3.721,26.703 6.375,40 0.969,4.857 0.7435,11.54252 3.4375,15.81252 3.468,5.496 16.18,8.5275 22,11.4375 28.155,14.10493 60.5368,27.54551 90,36.37499 18.13,3.69 36.61,7.5635 55,9.5625 9.53,1.035 19.39,3.4785 29,1.0625 31.14,-7.828 57.75,-31.37325 81,-52.40624 8.57,-7.753 16.46,-19.92677 27,-24.84377 -6.28,21.80702 -18.4362,42.66901 -26.4062,64.00001 -3.05,8.137 -8.7725,18.085 -8.3125,27 0.61,11.878 12.49,29.181 22.75,34.625 6.08,3.226 14.2787,3.44325 20.9687,4.78125 18.87,3.773 38.9501,5.69775 58.0001,7.59375 l 0,1 c -18.21,4.486 -37.5201,4.05 -56.0001,6.125 -11.64,1.306 -22.75,5.50975 -34,7.59375 -23.4,4.33 -48.56,8.02975 -71,16.09375 -35.17,12.641 -68.13,35.5115 -99,56.1875 -75.28,50.431 -146.7885,112.32001 -193.437502,191 -16.737998,28.23 -34.718498,61.05 -39.562498,94 l -3,0 c -0.01,10.78 -8.6097,31.0725 -2.9687,40.8125 4.567,7.89 26.6907,9.9475 34.968696,10.1875 29.597004,0.87 59.729004,7.06 89.000004,11 l -6.9687,18.99999 -23.2813,62 -73.6875,191 -23.9062,66 -10.1563,23 11.5,-54.0001 20.9063,-92.9999 36.5937,-179 c -9.791002,0 -18.427004,2.805 -28,3.875 -19.158,2.15 -40.583,0.8137 -59,-4.6563 -5.8319996,-1.73 -17.0881996,-3.5075 -21.4061995,-7.9375 -4.7130005,-4.83 -1.5938,-22.78119 -1.5938,-29.28119 0,-31.34 6.92349994,-62.54 17.3124999,-92 30.1079996,-85.37 92.1187996,-146.68129 156.5937996,-207.28125 19.567,-18.397 41.7337,-33.6985 64.0937,-48.5625 11.03,-7.335 23.18,-17.39225 36,-21.15625 l 0,-1 c -25.88,4.805 -52.82,5.185 -79,8.125 -29.022,3.258 -58.004,9.0315 -87,12.6875 -15.963004,2.013 -31.992,4.40525 -48,6.03125 -9.81,0.997 -22.018,1.19025 -31,5.53125 -40.433,19.54 -77.929,48.795 -115,73.625 l -29,19.34375 c -3.197,2.13996 -7.815,7.22996 -12,6.49996 -4.537,-0.79 -9.472,-6.29246 -13,-9.06246 -9.336,-7.32 -18.487,-14.95125 -28,-22.03125 -37.078,-27.59 -72.396,-57.423 -109,-85.375 -10.51,-8.025 -20.3667,-16.772 -30.9687,-24.5 -5.212,-3.799 -8.4443,-8.382 -15.0313,-9.875 -0.826,10.109 -4.2122,19.854 -4.9062,30 -1.845,26.937 1.1302,56.47925 6.1562,82.90625 5.865,30.84 15.3918,62.74376 23.4688,93.09376 3.384,12.71999 9.8912,24.51999 10.2812,37.99999 l 3,0 c 1.484,9.91 6.5915,19.4 9.4375,29 3.918,13.22 6.331,28.79 13.75,40.75 18.638,30.05 48.7925,56.5537 74.8125,80.0937 15.242,13.78999 30.771,27.27379 46,41.09379 4.806,4.35 15.3808,10.035 17.4688,16.375 2.244,6.82 -1.2938,17.5275 -1.4688,24.6875 -0.638,26.05 -3.1902,53.16 -6.7812,79 -6.558,47.2 -7.168,95.4399 -9.25,142.9999 -0.7724,32.3174 -5.8691,69.6111 -7.8125,95.9688 101.7963,46.9942 215.143,74.8125 334.625,74.8125 99.2618,0 194.2814,-19.7097 281.9687,-52.7812 -2.4674,-13.1254 -4.9316,-40.9495 -6.5625,-54 -2.44,-20.3503 -3.6225,-40.8838 -6.0625,-61.0939 -1.99,-16.46 -1.5212,-33.4061 -3.2812,-49.9061 -3.19,-29.7402 -7.8475,-59.29 -10.6875,-89 -1.17,-12.2001 -0.4263,-24.92 -2.4063,-37 -4.92,-30.06 -7.3812,-60.53 -8.7812,-91 -0.45,-9.86 -7.035,-22.06 -3.375,-32 1.91,-5.16 7.665,-9.14999 11.375,-12.99999 7.63,-7.92 14.6375,-15.0375 22.9375,-22.1875 18.18,-15.66 34.0425,-34.1925 51.8125,-50.3125 15.63,-14.18 29.0113,-30.8513 44.0313,-45.5313 45.68997,-44.64 91.99997,-88.71869 137.24997,-133.9687 17.85,-17.85 35.18994,-36.1 52.99995,-54 7.1,-7.137 19.65,-17.086 22.5,-27 2.97,-10.329 -4.03876,-22.847 -7.71875,-32 -5.07001,-12.574 -8.08625,-26.944 -11.90625,-40 -18.63,-63.781 -40.70495,-126.143 -62.37495,-189.00001 -12.53,-36.365 -26.1313,-72.452 -38.2813,-108.99999 -4.73,-14.197 -8.2375,-37.93025 -18.4375,-48.90625 -12.88,-13.855 -34.8612,-18.4845 -52.7812,-20.8125 -2.0925,-0.27188 -4.1879,-0.3662 -6.2812,-0.3125 z M -255.37998,364.0094 c -1.9249,0.0176 -3.9625,0.25088 -6.1563,0.71875 -21.715,4.631 -40.673,22.0815 -57,36.0625 -18.245,15.625 -33.7812,33.20725 -48.1562,52.40627 -8.484,11.33099 -16.6425,23.10899 -15.8125,37.99999 1.036,18.573 24.0297,35.026 35.9687,47 35.581,35.682 72.7535,67.6495 110.9375,100.3125 24.362,20.838 48.8045,41.25225 74.0625,60.90625 9.83,7.64 20.54,19.28 34,16.25 26.969,-6.06 54.4363,-28.0775 75.0313,-45.5625 6.111,-5.188 19.1907,-14.83725 18.5937,-23.90625 -0.405,-6.15 -4.594,-9.34425 -7.75,-14.03125 -8.49,-12.61 -18.3207,-23.9605 -27.3437,-36.0625 -34.766,-46.634 -68.6453,-94.15025 -103.6563,-140.90624 -17.591,-23.49302 -35.2047,-46.77302 -53.2187,-70.00002 -8.603,-11.09063 -16.0258,-21.31098 -29.5,-21.1875 z m 427.8437,122.18751 c 1.305,8.979 9.7053,17.578 14.6563,25 12.743,19.1 25.6725,38.37275 39.3125,56.84375 4.24,5.742 10.8487,22.261 18.2187,23.75 9.83,1.984 21.6838,-5.9215 30.8438,-8.1875 28.62,-7.086 58.7787,-17.11225 87.9687,-21.40625 -1.38,-6.642 -5.3262,-21.6925 -10.6562,-26.0625 -3.4,-2.792 -10.1538,-3.58025 -14.3438,-4.78125 -11.29,-3.237 -22.62,-6.479 -34,-9.375 -44.29,-11.272 -87.81,-25.25625 -132,-35.78125 z"
           id="path6792" />
      </g>
    </g>
  </g>
</svg>
